<svg width="17" height="16" viewBox="0 0 17 16" fill="none" xmlns="http://www.w3.org/2000/svg">
<path d="M7.60876 14.4836L7.60805 14.4829C5.40967 12.438 3.62457 10.7744 2.38323 9.21648C1.14775 7.66595 0.5 6.27898 0.5 4.79564C0.5 2.36602 2.34449 0.5 4.675 0.5C5.99805 0.5 7.27983 1.13446 8.11652 2.13447L8.5 2.59281L8.88348 2.13447C9.72017 1.13446 11.002 0.5 12.325 0.5C14.6555 0.5 16.5 2.36602 16.5 4.79564C16.5 6.27898 15.8523 7.66595 14.6168 9.21648C13.3754 10.7744 11.5903 12.438 9.39195 14.4829L9.39124 14.4836L8.5 15.3159L7.60876 14.4836Z" stroke="#FF8D08"/>
</svg>
