<svg width="13" height="8" viewBox="0 0 13 8" fill="none" xmlns="http://www.w3.org/2000/svg">
<path d="M12.9626 3.838C12.9437 3.7985 12.4849 2.859 11.4649 1.9175C10.1059 0.663 8.38933 0 6.5 0C4.61067 0 2.89412 0.663 1.53508 1.9175C0.51512 2.859 0.0541615 3.8 0.0373698 3.838C0.0127311 3.88916 0 3.94452 0 4.0005C0 4.05648 0.0127311 4.11184 0.0373698 4.163C0.0563282 4.2025 0.51512 5.1415 1.53508 6.083C2.89412 7.337 4.61067 8 6.5 8C8.38933 8 10.1059 7.337 11.4649 6.083C12.4849 5.1415 12.9437 4.2025 12.9626 4.163C12.9873 4.11184 13 4.05648 13 4.0005C13 3.94452 12.9873 3.88916 12.9626 3.838ZM6.5 7.2C4.83275 7.2 3.37621 6.6405 2.17045 5.5375C1.67572 5.08335 1.25481 4.56548 0.920829 4C1.25472 3.43447 1.67564 2.91659 2.17045 2.4625C3.37621 1.3595 4.83275 0.8 6.5 0.8C8.16725 0.8 9.62379 1.3595 10.8295 2.4625C11.3252 2.91648 11.7471 3.43436 12.0819 4C11.6913 4.673 9.98996 7.2 6.5 7.2ZM6.5 1.6C5.98577 1.6 5.48308 1.74076 5.05552 2.00447C4.62795 2.26819 4.2947 2.64302 4.09791 3.08156C3.90112 3.5201 3.84963 4.00266 3.94996 4.46822C4.05028 4.93377 4.2979 5.36141 4.66152 5.69706C5.02514 6.0327 5.48841 6.26128 5.99276 6.35389C6.49712 6.44649 7.01989 6.39896 7.49498 6.21731C7.97007 6.03566 8.37613 5.72805 8.66182 5.33337C8.94751 4.93869 9.1 4.47468 9.1 4C9.09929 3.36368 8.82513 2.75362 8.33769 2.30367C7.85025 1.85373 7.18934 1.60066 6.5 1.6ZM6.5 5.6C6.15718 5.6 5.82206 5.50616 5.53701 5.33035C5.25197 5.15454 5.0298 4.90465 4.89861 4.61229C4.76742 4.31993 4.73309 3.99823 4.79997 3.68786C4.86685 3.37749 5.03194 3.09239 5.27435 2.86863C5.51676 2.64487 5.82561 2.49248 6.16184 2.43074C6.49808 2.36901 6.84659 2.40069 7.16332 2.52179C7.48004 2.64289 7.75075 2.84797 7.94122 3.11109C8.13168 3.37421 8.23333 3.68355 8.23333 4C8.23333 4.42435 8.05072 4.83131 7.72565 5.13137C7.40059 5.43143 6.95971 5.6 6.5 5.6Z" fill="#666666"/>
</svg>
