<svg width="24" height="17" viewBox="0 0 24 17" fill="none" xmlns="http://www.w3.org/2000/svg">
<path d="M23.5294 0H22.0239C21.8128 0 21.6125 0.0969203 21.4833 0.262762L12.6032 11.512L8.34521 6.11675C8.2808 6.03497 8.1987 5.96884 8.10507 5.92333C8.01144 5.87782 7.90871 5.85411 7.80461 5.85399H6.29912C6.15481 5.85399 6.07512 6.01983 6.16343 6.13183L12.0626 13.6055C12.3383 13.9544 12.8682 13.9544 13.146 13.6055L23.6651 0.275685C23.7534 0.165842 23.6737 0 23.5294 0Z" fill="#008B51"/>
<path d="M17.4029 2.45068H15.8974C15.6864 2.45068 15.4861 2.5476 15.3568 2.71345L6.47678 13.9627L2.21875 8.56743C2.15433 8.48565 2.07223 8.41952 1.9786 8.37402C1.88497 8.32851 1.78225 8.3048 1.67815 8.30467H0.172651C0.0283477 8.30467 -0.0513425 8.47051 0.0369627 8.58251L5.93618 16.0561C6.21187 16.4051 6.7417 16.4051 7.01953 16.0561L17.5386 2.72637C17.6269 2.61653 17.5472 2.45068 17.4029 2.45068Z" fill="#008B51"/>
</svg>
