<svg width="193" height="64" viewBox="0 0 193 64" fill="none" xmlns="http://www.w3.org/2000/svg">
<rect x="0.5" y="0.5" width="191" height="63" rx="14.5" fill="#04CC78" stroke="white"/>
<path d="M74.1695 38.6815H80.8801C80.9183 38.8392 80.9502 39.0297 80.9757 39.2531C81.0012 39.4765 81.0139 39.6999 81.0139 39.9232C81.0139 40.8299 80.8801 41.684 80.6124 42.4855C80.3448 43.287 79.9242 44.0031 79.3506 44.6338C78.7388 45.3039 78.0059 45.823 77.152 46.1909C76.298 46.5588 75.323 46.7427 74.2268 46.7427C73.2327 46.7427 72.2958 46.5588 71.4164 46.1909C70.5369 45.823 69.7722 45.3105 69.1222 44.6535C68.4721 43.9965 67.9559 43.2213 67.5736 42.3278C67.1912 41.4212 67 40.4357 67 39.3714C67 38.3071 67.1912 37.3281 67.5736 36.4346C67.9559 35.528 68.4721 34.7462 69.1222 34.0892C69.7722 33.4322 70.5369 32.9198 71.4164 32.5519C72.2958 32.184 73.2327 32 74.2268 32C75.3357 32 76.3235 32.1971 77.1902 32.5913C78.0697 32.9855 78.8217 33.5308 79.4462 34.2272L77.6682 36.0207C77.2221 35.5346 76.725 35.1667 76.1769 34.917C75.6289 34.6542 74.9724 34.5228 74.2077 34.5228C73.5832 34.5228 72.9905 34.6411 72.4297 34.8776C71.8689 35.101 71.3782 35.4229 70.9575 35.8434C70.5369 36.2638 70.1992 36.7763 69.9443 37.3807C69.7021 37.972 69.581 38.6355 69.581 39.3714C69.581 40.1072 69.7021 40.7773 69.9443 41.3817C70.1992 41.973 70.5369 42.4789 70.9575 42.8994C71.3909 43.3198 71.888 43.6483 72.4488 43.8849C73.0096 44.1082 73.6087 44.2199 74.2459 44.2199C74.9724 44.2199 75.5842 44.1148 76.0813 43.9046C76.5912 43.6812 77.0245 43.3987 77.3814 43.0571C77.6363 42.8205 77.853 42.5249 78.0314 42.1701C78.2226 41.8022 78.3692 41.3949 78.4711 40.9481H74.1695V38.6815Z" fill="white"/>
<path d="M87.1832 36.4544C87.9098 36.4544 88.5725 36.5858 89.1716 36.8485C89.7834 37.0982 90.306 37.453 90.7393 37.9129C91.1854 38.3596 91.5295 38.8983 91.7717 39.529C92.0266 40.1598 92.1541 40.8496 92.1541 41.5985C92.1541 42.3475 92.0266 43.0373 91.7717 43.6681C91.5295 44.2988 91.1854 44.8441 90.7393 45.3039C90.306 45.7507 89.7834 46.1055 89.1716 46.3683C88.5725 46.6179 87.9098 46.7427 87.1832 46.7427C86.4567 46.7427 85.7876 46.6179 85.1758 46.3683C84.5767 46.1055 84.0542 45.7507 83.6081 45.3039C83.1747 44.8441 82.8306 44.2988 82.5757 43.6681C82.3335 43.0373 82.2124 42.3475 82.2124 41.5985C82.2124 40.8496 82.3335 40.1598 82.5757 39.529C82.8306 38.8983 83.1747 38.3596 83.6081 37.9129C84.0542 37.453 84.5767 37.0982 85.1758 36.8485C85.7876 36.5858 86.4567 36.4544 87.1832 36.4544ZM87.1832 44.3579C87.5019 44.3579 87.8078 44.2988 88.1009 44.1805C88.4068 44.0491 88.6745 43.8651 88.9039 43.6286C89.1333 43.3921 89.3118 43.103 89.4392 42.7614C89.5794 42.4198 89.6495 42.0322 89.6495 41.5985C89.6495 41.1649 89.5794 40.7773 89.4392 40.4357C89.3118 40.0941 89.1333 39.805 88.9039 39.5685C88.6745 39.332 88.4068 39.1546 88.1009 39.0363C87.8078 38.9049 87.5019 38.8392 87.1832 38.8392C86.8519 38.8392 86.5396 38.9049 86.2464 39.0363C85.9533 39.1546 85.692 39.332 85.4626 39.5685C85.2332 39.805 85.0483 40.0941 84.9081 40.4357C84.7807 40.7773 84.717 41.1649 84.717 41.5985C84.717 42.0322 84.7807 42.4198 84.9081 42.7614C85.0483 43.103 85.2332 43.3921 85.4626 43.6286C85.692 43.8651 85.9533 44.0491 86.2464 44.1805C86.5396 44.2988 86.8519 44.3579 87.1832 44.3579Z" fill="white"/>
<path d="M98.1988 36.4544C98.9253 36.4544 99.5881 36.5858 100.187 36.8485C100.799 37.0982 101.322 37.453 101.755 37.9129C102.201 38.3596 102.545 38.8983 102.787 39.529C103.042 40.1598 103.17 40.8496 103.17 41.5985C103.17 42.3475 103.042 43.0373 102.787 43.6681C102.545 44.2988 102.201 44.8441 101.755 45.3039C101.322 45.7507 100.799 46.1055 100.187 46.3683C99.5881 46.6179 98.9253 46.7427 98.1988 46.7427C97.4723 46.7427 96.8032 46.6179 96.1914 46.3683C95.5923 46.1055 95.0698 45.7507 94.6237 45.3039C94.1903 44.8441 93.8462 44.2988 93.5913 43.6681C93.3491 43.0373 93.228 42.3475 93.228 41.5985C93.228 40.8496 93.3491 40.1598 93.5913 39.529C93.8462 38.8983 94.1903 38.3596 94.6237 37.9129C95.0698 37.453 95.5923 37.0982 96.1914 36.8485C96.8032 36.5858 97.4723 36.4544 98.1988 36.4544ZM98.1988 44.3579C98.5175 44.3579 98.8234 44.2988 99.1165 44.1805C99.4224 44.0491 99.6901 43.8651 99.9195 43.6286C100.149 43.3921 100.327 43.103 100.455 42.7614C100.595 42.4198 100.665 42.0322 100.665 41.5985C100.665 41.1649 100.595 40.7773 100.455 40.4357C100.327 40.0941 100.149 39.805 99.9195 39.5685C99.6901 39.332 99.4224 39.1546 99.1165 39.0363C98.8234 38.9049 98.5175 38.8392 98.1988 38.8392C97.8674 38.8392 97.5552 38.9049 97.262 39.0363C96.9689 39.1546 96.7076 39.332 96.4782 39.5685C96.2487 39.805 96.0639 40.0941 95.9237 40.4357C95.7963 40.7773 95.7325 41.1649 95.7325 41.5985C95.7325 42.0322 95.7963 42.4198 95.9237 42.7614C96.0639 43.103 96.2487 43.3921 96.4782 43.6286C96.7076 43.8651 96.9689 44.0491 97.262 44.1805C97.5552 44.2988 97.8674 44.3579 98.1988 44.3579Z" fill="white"/>
<path d="M109.1 51C108.437 51 107.844 50.908 107.322 50.7241C106.812 50.5533 106.366 50.3233 105.983 50.0342C105.601 49.7583 105.282 49.4495 105.027 49.1079C104.773 48.7663 104.588 48.4246 104.473 48.083L106.863 47.0975C107.041 47.61 107.334 48.0041 107.742 48.2801C108.15 48.5692 108.603 48.7137 109.1 48.7137C109.89 48.7137 110.514 48.4575 110.973 47.945C111.432 47.4457 111.662 46.7427 111.662 45.8361V45.166H111.509C111.216 45.5864 110.827 45.9215 110.342 46.1712C109.871 46.4077 109.31 46.5259 108.66 46.5259C108.099 46.5259 107.551 46.4077 107.016 46.1712C106.493 45.9346 106.028 45.5996 105.62 45.166C105.212 44.7192 104.881 44.1871 104.626 43.5695C104.371 42.9519 104.244 42.2621 104.244 41.5C104.244 40.7379 104.371 40.0481 104.626 39.4305C104.881 38.7998 105.212 38.2676 105.62 37.834C106.028 37.3873 106.493 37.0456 107.016 36.8091C107.551 36.5726 108.099 36.4544 108.66 36.4544C109.31 36.4544 109.871 36.5792 110.342 36.8288C110.827 37.0654 111.216 37.3938 111.509 37.8143H111.662V36.7697H114.051V45.7376C114.051 46.5522 113.93 47.2815 113.688 47.9253C113.446 48.5823 113.108 49.1342 112.675 49.5809C112.242 50.0408 111.719 50.389 111.107 50.6255C110.508 50.8752 109.839 51 109.1 51ZM109.195 44.2002C109.501 44.2002 109.801 44.1411 110.094 44.0228C110.4 43.9046 110.667 43.7337 110.897 43.5104C111.126 43.2739 111.311 42.9914 111.451 42.6629C111.591 42.3212 111.662 41.9336 111.662 41.5C111.662 41.0664 111.591 40.6788 111.451 40.3371C111.311 39.9955 111.126 39.713 110.897 39.4896C110.667 39.2531 110.4 39.0757 110.094 38.9575C109.801 38.8392 109.501 38.7801 109.195 38.7801C108.889 38.7801 108.59 38.8392 108.297 38.9575C108.004 39.0757 107.742 39.2531 107.513 39.4896C107.283 39.7261 107.099 40.0152 106.958 40.3568C106.818 40.6853 106.748 41.0664 106.748 41.5C106.748 41.9336 106.818 42.3212 106.958 42.6629C107.099 42.9914 107.283 43.2739 107.513 43.5104C107.742 43.7337 108.004 43.9046 108.297 44.0228C108.59 44.1411 108.889 44.2002 109.195 44.2002Z" fill="white"/>
<path d="M116.187 46.4274V32.3154H118.691V46.4274H116.187Z" fill="white"/>
<path d="M129.613 44.1017C129.18 44.89 128.594 45.5273 127.854 46.0135C127.128 46.4997 126.236 46.7427 125.178 46.7427C124.464 46.7427 123.801 46.6179 123.189 46.3683C122.59 46.1055 122.068 45.7441 121.622 45.2842C121.176 44.8243 120.825 44.2856 120.57 43.6681C120.328 43.0373 120.207 42.3475 120.207 41.5985C120.207 40.9021 120.328 40.2452 120.57 39.6276C120.812 38.9969 121.15 38.4516 121.583 37.9917C122.017 37.5187 122.527 37.1442 123.113 36.8683C123.712 36.5923 124.368 36.4544 125.082 36.4544C125.834 36.4544 126.503 36.5858 127.09 36.8485C127.676 37.0982 128.167 37.453 128.562 37.9129C128.957 38.3596 129.256 38.8918 129.46 39.5093C129.664 40.1269 129.766 40.797 129.766 41.5197C129.766 41.6117 129.766 41.6905 129.766 41.7562C129.753 41.8351 129.747 41.9073 129.747 41.973C129.734 42.0387 129.728 42.111 129.728 42.1898H122.673C122.724 42.584 122.826 42.9257 122.979 43.2147C123.145 43.4907 123.342 43.7272 123.572 43.9243C123.814 44.1082 124.075 44.2462 124.356 44.3382C124.636 44.417 124.923 44.4564 125.216 44.4564C125.789 44.4564 126.261 44.325 126.631 44.0622C127.013 43.7863 127.313 43.4447 127.529 43.0373L129.613 44.1017ZM127.338 40.3568C127.325 40.186 127.268 39.9955 127.166 39.7853C127.077 39.575 126.937 39.3779 126.745 39.194C126.567 39.01 126.338 38.8589 126.057 38.7407C125.789 38.6224 125.464 38.5633 125.082 38.5633C124.547 38.5633 124.075 38.721 123.667 39.0363C123.259 39.3517 122.973 39.7918 122.807 40.3568H127.338Z" fill="white"/>
<path d="M135.872 46.4274V32.3154H140.69C141.34 32.3154 141.946 32.427 142.507 32.6504C143.08 32.8607 143.577 33.1629 143.998 33.5571C144.418 33.9512 144.75 34.4243 144.992 34.9761C145.234 35.5149 145.355 36.1127 145.355 36.7697C145.355 37.4398 145.234 38.0508 144.992 38.6027C144.75 39.1414 144.418 39.6079 143.998 40.0021C143.577 40.3963 143.08 40.705 142.507 40.9284C141.946 41.1387 141.34 41.2438 140.69 41.2438H138.453V46.4274H135.872ZM140.729 38.721C141.404 38.721 141.914 38.5239 142.258 38.1297C142.602 37.7355 142.774 37.2822 142.774 36.7697C142.774 36.5201 142.73 36.277 142.64 36.0405C142.564 35.8039 142.436 35.6003 142.258 35.4295C142.092 35.2455 141.882 35.101 141.627 34.9959C141.372 34.8907 141.073 34.8382 140.729 34.8382H138.453V38.721H140.729Z" fill="white"/>
<path d="M146.974 46.4274V32.3154H149.479V46.4274H146.974Z" fill="white"/>
<path d="M157.304 45.4025H157.151C156.858 45.7704 156.501 46.0858 156.08 46.3485C155.672 46.6113 155.143 46.7427 154.493 46.7427C154.009 46.7427 153.55 46.6573 153.117 46.4865C152.696 46.3288 152.326 46.1055 152.008 45.8164C151.689 45.5273 151.441 45.1791 151.262 44.7718C151.084 44.3645 150.994 43.9177 150.994 43.4315C150.994 42.9322 151.09 42.4855 151.281 42.0913C151.472 41.684 151.74 41.3358 152.084 41.0467C152.428 40.7576 152.83 40.5408 153.289 40.3963C153.76 40.2386 154.27 40.1598 154.818 40.1598C155.43 40.1598 155.933 40.2123 156.329 40.3174C156.724 40.4094 157.049 40.508 157.304 40.6131V40.3174C157.304 39.805 157.106 39.3845 156.711 39.056C156.316 38.7144 155.825 38.5436 155.239 38.5436C154.372 38.5436 153.639 38.918 153.04 39.667L151.224 38.3859C152.218 37.0982 153.576 36.4544 155.296 36.4544C156.749 36.4544 157.858 36.8091 158.623 37.5187C159.388 38.2151 159.77 39.2531 159.77 40.6328V46.4274H157.304V45.4025ZM157.304 42.5052C157.01 42.3606 156.705 42.249 156.386 42.1701C156.08 42.0781 155.742 42.0322 155.373 42.0322C154.774 42.0322 154.308 42.1701 153.977 42.4461C153.658 42.7089 153.499 43.0373 153.499 43.4315C153.499 43.8257 153.652 44.1411 153.958 44.3776C154.277 44.6141 154.64 44.7324 155.048 44.7324C155.379 44.7324 155.685 44.6732 155.965 44.555C156.246 44.4236 156.482 44.2593 156.673 44.0622C156.877 43.852 157.03 43.6155 157.132 43.3527C157.246 43.0768 157.304 42.7943 157.304 42.5052Z" fill="white"/>
<path d="M164.519 45.9544L160.58 36.7697H163.429L165.8 42.6234H165.934L168.209 36.7697H171L165.131 50.6846H162.435L164.519 45.9544Z" fill="white"/>
<path d="M71.63 17H73.19L70.79 21.27V24H69.42V21.27L67.03 17H68.59L70.11 19.92L71.63 17ZM76.5052 21.7V19H77.7952V24H76.5052V23.44C76.1986 23.9067 75.7019 24.14 75.0152 24.14C74.4686 24.14 74.0152 23.9567 73.6552 23.59C73.3019 23.2167 73.1252 22.71 73.1252 22.07V19H74.4152V21.91C74.4152 22.2367 74.5019 22.49 74.6752 22.67C74.8552 22.85 75.0986 22.94 75.4052 22.94C75.7452 22.94 76.0119 22.8367 76.2052 22.63C76.4052 22.4167 76.5052 22.1067 76.5052 21.7ZM81.5167 21.47L83.5867 24H82.0867L80.2667 21.73V24H78.9767V17H80.2667V21.2L81.9867 19H83.5267L81.5167 21.47ZM85.5206 24H84.2306V16.7H85.5206V24ZM90.5013 19.59V19H91.7913V24H90.5013V23.41C90.1147 23.8967 89.5713 24.14 88.8713 24.14C88.2047 24.14 87.6313 23.8867 87.1513 23.38C86.678 22.8667 86.4413 22.24 86.4413 21.5C86.4413 20.7667 86.678 20.1433 87.1513 19.63C87.6313 19.1167 88.2047 18.86 88.8713 18.86C89.5713 18.86 90.1147 19.1033 90.5013 19.59ZM88.1213 22.52C88.3813 22.78 88.7113 22.91 89.1113 22.91C89.5113 22.91 89.8413 22.78 90.1013 22.52C90.368 22.2533 90.5013 21.9133 90.5013 21.5C90.5013 21.0867 90.368 20.75 90.1013 20.49C89.8413 20.2233 89.5113 20.09 89.1113 20.09C88.7113 20.09 88.3813 20.2233 88.1213 20.49C87.8613 20.75 87.7313 21.0867 87.7313 21.5C87.7313 21.9133 87.8613 22.2533 88.1213 22.52ZM95.8711 18.86C96.5444 18.86 97.1178 19.1167 97.5911 19.63C98.0711 20.1433 98.3111 20.7667 98.3111 21.5C98.3111 22.2467 98.0711 22.8733 97.5911 23.38C97.1244 23.8867 96.5511 24.14 95.8711 24.14C95.1711 24.14 94.6311 23.8967 94.2511 23.41V24H92.9611V17H94.2511V19.59C94.6311 19.1033 95.1711 18.86 95.8711 18.86ZM94.6411 22.52C94.9011 22.78 95.2311 22.91 95.6311 22.91C96.0311 22.91 96.3611 22.78 96.6211 22.52C96.8878 22.2533 97.0211 21.9133 97.0211 21.5C97.0211 21.0867 96.8878 20.75 96.6211 20.49C96.3611 20.2233 96.0311 20.09 95.6311 20.09C95.2311 20.09 94.9011 20.2233 94.6411 20.49C94.3811 20.75 94.2511 21.0867 94.2511 21.5C94.2511 21.9133 94.3811 22.2533 94.6411 22.52ZM105.981 23.38C105.474 23.8867 104.848 24.14 104.101 24.14C103.354 24.14 102.728 23.8867 102.221 23.38C101.714 22.8733 101.461 22.2467 101.461 21.5C101.461 20.76 101.714 20.1367 102.221 19.63C102.734 19.1167 103.361 18.86 104.101 18.86C104.841 18.86 105.468 19.1167 105.981 19.63C106.494 20.1433 106.751 20.7667 106.751 21.5C106.751 22.24 106.494 22.8667 105.981 23.38ZM103.131 22.49C103.391 22.75 103.714 22.88 104.101 22.88C104.488 22.88 104.811 22.75 105.071 22.49C105.331 22.23 105.461 21.9 105.461 21.5C105.461 21.1 105.331 20.77 105.071 20.51C104.811 20.25 104.488 20.12 104.101 20.12C103.714 20.12 103.391 20.25 103.131 20.51C102.878 20.7767 102.751 21.1067 102.751 21.5C102.751 21.8933 102.878 22.2233 103.131 22.49ZM108.948 24H107.658V16.7H108.948V24ZM110.769 18.4C110.556 18.4 110.369 18.3233 110.209 18.17C110.056 18.01 109.979 17.8233 109.979 17.61C109.979 17.3967 110.056 17.21 110.209 17.05C110.369 16.89 110.556 16.81 110.769 16.81C110.989 16.81 111.176 16.89 111.329 17.05C111.489 17.21 111.569 17.3967 111.569 17.61C111.569 17.8233 111.489 18.01 111.329 18.17C111.176 18.3233 110.989 18.4 110.769 18.4ZM111.419 24H110.129V19H111.419V24ZM115.38 18.86C115.933 18.86 116.383 19.0433 116.73 19.41C117.09 19.7833 117.27 20.29 117.27 20.93V24H115.98V21.09C115.98 20.7633 115.89 20.51 115.71 20.33C115.536 20.15 115.296 20.06 114.99 20.06C114.65 20.06 114.38 20.1667 114.18 20.38C113.986 20.5867 113.89 20.8933 113.89 21.3V24H112.6V19H113.89V19.56C114.196 19.0933 114.693 18.86 115.38 18.86ZM122.201 19.62V19H123.461V23.76C123.461 24.5267 123.205 25.1167 122.691 25.53C122.185 25.9367 121.571 26.14 120.851 26.14C119.718 26.14 118.928 25.7333 118.481 24.92L119.581 24.29C119.828 24.7567 120.265 24.99 120.891 24.99C121.298 24.99 121.618 24.8833 121.851 24.67C122.085 24.4567 122.201 24.1533 122.201 23.76V23.22C121.821 23.7267 121.288 23.98 120.601 23.98C119.895 23.98 119.301 23.7333 118.821 23.24C118.348 22.7333 118.111 22.1267 118.111 21.42C118.111 20.7133 118.351 20.11 118.831 19.61C119.311 19.11 119.901 18.86 120.601 18.86C121.288 18.86 121.821 19.1133 122.201 19.62ZM121.801 22.41C122.068 22.15 122.201 21.82 122.201 21.42C122.201 21.02 122.068 20.6967 121.801 20.45C121.541 20.19 121.208 20.06 120.801 20.06C120.401 20.06 120.065 20.19 119.791 20.45C119.531 20.6967 119.401 21.02 119.401 21.42C119.401 21.82 119.531 22.15 119.791 22.41C120.058 22.6633 120.395 22.79 120.801 22.79C121.208 22.79 121.541 22.6633 121.801 22.41Z" fill="white"/>
<path d="M29.5333 15.4313C28.2345 14.691 26.7095 14.7081 25.419 15.442L40.544 29.8295L45.6251 24.5901L29.5333 15.4313Z" fill="white"/>
<path d="M23.9062 16.9131C23.5369 17.5357 23.3253 18.2481 23.3253 19.0033V44.9886C23.3253 45.7203 23.5182 46.4178 23.8668 47.0275L39.0768 31.3434L23.9062 16.9131Z" fill="white"/>
<path d="M52.3609 28.4247L47.5143 25.667L42.068 31.2808L48.7425 37.6285L52.363 35.5682C53.6659 34.8237 54.446 33.4887 54.446 31.9954C54.4439 30.5021 53.6659 29.1671 52.3609 28.4247Z" fill="white"/>
<path d="M40.6022 32.7949L25.3507 48.5218C26.0126 48.9111 26.7387 49.1165 27.469 49.1165C28.1744 49.1165 28.884 48.9325 29.5334 48.5624L46.8306 38.719L40.6022 32.7949Z" fill="white"/>
</svg>
