<svg width="32" height="32" viewBox="0 0 32 32" fill="none" xmlns="http://www.w3.org/2000/svg">
<path d="M25.64 20.3466L22.2533 19.96C21.8551 19.9132 21.4515 19.9573 21.0727 20.0889C20.694 20.2206 20.35 20.4363 20.0667 20.72L17.6133 23.1733C13.8282 21.2483 10.7517 18.1717 8.82666 14.3866L11.2933 11.92C11.8667 11.3466 12.1467 10.5466 12.0533 9.73331L11.6667 6.37331C11.5911 5.72288 11.2789 5.12296 10.7896 4.68777C10.3004 4.25259 9.66814 4.01253 9.01333 4.01331H6.70666C5.19999 4.01331 3.94666 5.26664 4.03999 6.77331C4.74666 18.16 13.8533 27.2533 25.2267 27.96C26.7333 28.0533 27.9867 26.8 27.9867 25.2933V22.9866C28 21.64 26.9867 20.5066 25.64 20.3466Z" fill="white"/>
</svg>
