<svg width="22" height="22" viewBox="0 0 22 22" fill="none" xmlns="http://www.w3.org/2000/svg">
<path d="M16.4375 6.56093C16.4375 6.0081 15.9894 5.56171 15.4386 5.56171C14.8878 5.56171 14.4394 6.0081 14.4394 6.56093C14.4394 7.11172 14.8878 7.55811 15.4386 7.55811C15.9894 7.55811 16.4375 7.11172 16.4375 6.56093Z" fill="white"/>
<path d="M17.7686 14.3607C17.7316 15.1717 17.596 15.6123 17.4834 15.905C17.3321 16.293 17.1517 16.5704 16.859 16.8614C16.5696 17.1525 16.2922 17.3325 15.9042 17.4821C15.6115 17.5964 15.1692 17.7324 14.3583 17.7711C13.4815 17.8097 13.2218 17.8179 10.9985 17.8179C8.77726 17.8179 8.51541 17.8097 7.63867 17.7711C6.82772 17.7324 6.3875 17.5964 6.09483 17.4821C5.70477 17.3325 5.42938 17.1525 5.13837 16.8614C4.84529 16.5704 4.66486 16.293 4.51566 15.905C4.40301 15.6123 4.26534 15.1717 4.23038 14.3607C4.18765 13.484 4.17982 13.2201 4.17982 11.0013C4.17982 8.77806 4.18765 8.51621 4.23038 7.63947C4.26534 6.82853 4.40301 6.38831 4.51566 6.09317C4.66486 5.70557 4.84529 5.42976 5.13837 5.13874C5.42938 4.84816 5.70477 4.6677 6.09483 4.51646C6.3875 4.40178 6.82772 4.26777 7.63867 4.22915C8.51541 4.19049 8.77726 4.18062 10.9985 4.18062C13.2218 4.18062 13.4815 4.19049 14.3583 4.22915C15.1692 4.26777 15.6115 4.40178 15.9042 4.51646C16.2922 4.6677 16.5696 4.84816 16.859 5.13874C17.1517 5.42976 17.3321 5.70557 17.4834 6.09317C17.596 6.38831 17.7316 6.82853 17.7686 7.63947C17.8093 8.51621 17.8192 8.77806 17.8192 11.0013C17.8192 13.2201 17.8093 13.484 17.7686 14.3607ZM19.266 7.57125C19.2253 6.68505 19.0856 6.0796 18.878 5.55227C18.6667 5.00517 18.3835 4.54152 17.9199 4.07788C17.4583 3.6163 16.9946 3.33308 16.4475 3.11936C15.9181 2.91383 15.3147 2.77242 14.4281 2.7338C13.5415 2.69104 13.2583 2.68324 10.9985 2.68324C8.74066 2.68324 8.45542 2.69104 7.56882 2.7338C6.68425 2.77242 6.08126 2.91383 5.5494 3.11936C5.00436 3.33308 4.54072 3.6163 4.07914 4.07788C3.61549 4.54152 3.33228 5.00517 3.11895 5.55227C2.91342 6.0796 2.77368 6.68505 2.73093 7.57125C2.6923 8.45786 2.68243 8.74147 2.68243 11.0013C2.68243 13.2592 2.6923 13.5423 2.73093 14.4289C2.77368 15.3135 2.91342 15.9185 3.11895 16.4484C3.33228 16.9934 3.61549 17.4591 4.07914 17.9207C4.54072 18.3823 5.00436 18.6675 5.5494 18.8809C6.08126 19.0864 6.68425 19.2261 7.56882 19.2668C8.45542 19.3075 8.74066 19.3174 10.9985 19.3174C13.2583 19.3174 13.5415 19.3075 14.4281 19.2668C15.3147 19.2261 15.9181 19.0864 16.4475 18.8809C16.9946 18.6675 17.4583 18.3823 17.9199 17.9207C18.3835 17.4591 18.6667 16.9934 18.878 16.4484C19.0856 15.9185 19.2253 15.3135 19.266 14.4289C19.3067 13.5423 19.3166 13.2592 19.3166 11.0013C19.3166 8.74147 19.3067 8.45786 19.266 7.57125Z" fill="white"/>
<path d="M10.9984 13.7711C9.46812 13.7711 8.22639 12.5314 8.22639 11.0011C8.22639 9.46833 9.46812 8.22703 10.9984 8.22703C12.5291 8.22703 13.7725 9.46833 13.7725 11.0011C13.7725 12.5314 12.5291 13.7711 10.9984 13.7711ZM10.9984 6.72758C8.63948 6.72758 6.729 8.64215 6.729 11.0011C6.729 13.358 8.63948 15.2705 10.9984 15.2705C13.3573 15.2705 15.2699 13.358 15.2699 11.0011C15.2699 8.64215 13.3573 6.72758 10.9984 6.72758Z" fill="white"/>
</svg>
