<svg width="20" height="20" viewBox="0 0 20 20" fill="none" xmlns="http://www.w3.org/2000/svg">
<path d="M7.33315 11.6667L16.4998 2.5M7.33315 11.6667L10.2498 17.5C10.2864 17.5798 10.3451 17.6474 10.4189 17.6948C10.4928 17.7422 10.5787 17.7674 10.6665 17.7674C10.7542 17.7674 10.8402 17.7422 10.914 17.6948C10.9879 17.6474 11.0466 17.5798 11.0831 17.5L16.4998 2.5M7.33315 11.6667L1.49981 8.75C1.42003 8.71344 1.35242 8.65474 1.30502 8.58088C1.25762 8.50701 1.23242 8.4211 1.23242 8.33333C1.23242 8.24557 1.25762 8.15965 1.30502 8.08579C1.35242 8.01193 1.42003 7.95323 1.49981 7.91667L16.4998 2.5" stroke="white" stroke-width="2" stroke-linecap="round" stroke-linejoin="round"/>
</svg>
