<svg width="35" height="35" viewBox="0 0 35 35" fill="none" xmlns="http://www.w3.org/2000/svg">
<path d="M11.375 2.9165H23.625C28.2917 2.9165 32.0833 6.70817 32.0833 11.3748V23.6248C32.0833 25.8681 31.1922 28.0195 29.6059 29.6058C28.0197 31.192 25.8683 32.0832 23.625 32.0832H11.375C6.70832 32.0832 2.91666 28.2915 2.91666 23.6248V11.3748C2.91666 9.13155 3.8078 6.98014 5.39404 5.39389C6.98029 3.80765 9.1317 2.9165 11.375 2.9165ZM11.0833 5.83317C9.69094 5.83317 8.35558 6.38629 7.37101 7.37086C6.38645 8.35543 5.83332 9.69078 5.83332 11.0832V23.9165C5.83332 26.8186 8.18124 29.1665 11.0833 29.1665H23.9167C25.309 29.1665 26.6444 28.6134 27.629 27.6288C28.6135 26.6442 29.1667 25.3089 29.1667 23.9165V11.0832C29.1667 8.18109 26.8187 5.83317 23.9167 5.83317H11.0833ZM25.1562 8.02067C25.6397 8.02067 26.1034 8.21273 26.4452 8.55459C26.7871 8.89645 26.9792 9.36012 26.9792 9.84359C26.9792 10.3271 26.7871 10.7907 26.4452 11.1326C26.1034 11.4744 25.6397 11.6665 25.1562 11.6665C24.6728 11.6665 24.2091 11.4744 23.8672 11.1326C23.5254 10.7907 23.3333 10.3271 23.3333 9.84359C23.3333 9.36012 23.5254 8.89645 23.8672 8.55459C24.2091 8.21273 24.6728 8.02067 25.1562 8.02067ZM17.5 10.2082C19.4339 10.2082 21.2885 10.9764 22.656 12.3438C24.0234 13.7113 24.7917 15.566 24.7917 17.4998C24.7917 19.4337 24.0234 21.2884 22.656 22.6558C21.2885 24.0233 19.4339 24.7915 17.5 24.7915C15.5661 24.7915 13.7115 24.0233 12.344 22.6558C10.9765 21.2884 10.2083 19.4337 10.2083 17.4998C10.2083 15.566 10.9765 13.7113 12.344 12.3438C13.7115 10.9764 15.5661 10.2082 17.5 10.2082ZM17.5 13.1248C16.3397 13.1248 15.2269 13.5858 14.4064 14.4062C13.5859 15.2267 13.125 16.3395 13.125 17.4998C13.125 18.6602 13.5859 19.773 14.4064 20.5934C15.2269 21.4139 16.3397 21.8748 17.5 21.8748C18.6603 21.8748 19.7731 21.4139 20.5936 20.5934C21.4141 19.773 21.875 18.6602 21.875 17.4998C21.875 16.3395 21.4141 15.2267 20.5936 14.4062C19.7731 13.5858 18.6603 13.1248 17.5 13.1248Z" fill="black"/>
</svg>
