<svg width="35" height="35" viewBox="0 0 35 35" fill="none" xmlns="http://www.w3.org/2000/svg">
<g clip-path="url(#clip0_196_3557)">
<path fill-rule="evenodd" clip-rule="evenodd" d="M31.85 8.83179C31.9136 8.44579 31.8726 8.0498 31.7311 7.68507C31.5896 7.32034 31.353 7.00022 31.0457 6.75806C30.7385 6.5159 30.3719 6.36056 29.9842 6.30823C29.5965 6.25591 29.2019 6.3085 28.8415 6.46054L3.90397 16.9605C2.16563 17.6926 2.07668 20.2068 3.90397 20.9651C5.71335 21.7197 7.5491 22.4095 9.40772 23.033C11.1111 23.596 12.969 24.1166 14.4579 24.2639C14.8648 24.751 15.3767 25.2191 15.8988 25.6493C16.6965 26.3055 17.6561 26.9807 18.6477 27.6282C20.634 28.9262 22.8375 30.1672 24.3221 30.9751C26.0969 31.9376 28.2217 30.8293 28.5396 28.8941L31.85 8.83179ZM6.69959 18.9468L28.7554 9.66158L25.6667 28.3866C24.2098 27.5947 22.1113 26.4091 20.2417 25.187C19.38 24.6338 18.5481 24.0355 17.7494 23.3947C17.5359 23.2203 17.3287 23.0384 17.1281 22.8493L22.9046 17.0743C23.1782 16.8008 23.332 16.4299 23.3322 16.043C23.3323 15.6562 23.1788 15.2851 22.9053 15.0115C22.6319 14.7378 22.2609 14.584 21.8741 14.5839C21.4872 14.5838 21.1162 14.7373 20.8425 15.0107L14.5177 21.3355C13.4473 21.1985 11.9569 20.8018 10.3206 20.2622C9.10248 19.8564 7.89406 19.4178 6.69959 18.9468Z" fill="black"/>
</g>
<defs>
<clipPath id="clip0_196_3557">
<rect width="35" height="35" fill="white"/>
</clipPath>
</defs>
</svg>
