<svg width="18" height="18" viewBox="0 0 18 18" fill="none" xmlns="http://www.w3.org/2000/svg">
<path fill-rule="evenodd" clip-rule="evenodd" d="M17.317 8.99969C17.317 13.5931 13.5933 17.3168 8.9999 17.3168C4.40651 17.3168 0.682831 13.5931 0.682831 8.99969C0.682831 4.4063 4.40651 0.682617 8.9999 0.682617C13.5933 0.682617 17.317 4.4063 17.317 8.99969ZM9.74658 6.63127L4.14418 8.93496C3.15998 9.3135 3.74401 9.67041 3.74401 9.67041C3.74401 9.67041 4.5768 9.96243 5.30143 10.1787C6.01525 10.395 6.40461 10.1571 6.40461 10.1571L9.77903 7.88586C10.9795 7.06389 10.6983 7.73445 10.4063 8.02646C9.78984 8.65376 8.75156 9.63796 7.88632 10.4275C7.50778 10.7628 7.69165 11.0548 7.86469 11.1954C8.33619 11.6007 9.44664 12.3287 9.98644 12.6825C10.1524 12.7914 10.2645 12.8648 10.2874 12.8826C10.4063 12.9799 11.0769 13.4126 11.4879 13.3152C11.8989 13.2179 11.9421 12.6663 11.9421 12.6663L12.5478 8.8917C12.5997 8.55144 12.6516 8.21809 12.7002 7.90581C12.834 7.04682 12.9429 6.3472 12.9588 6.10132C13.0345 5.29016 12.1692 5.62544 12.1692 5.62544C12.1692 5.62544 10.2982 6.39333 9.74658 6.63127Z" fill="white"/>
</svg>
