<svg width="22" height="22" viewBox="0 0 22 22" fill="none" xmlns="http://www.w3.org/2000/svg">
<path fill-rule="evenodd" clip-rule="evenodd" d="M19.3173 11.0007C19.3173 15.5941 15.5936 19.3177 11.0002 19.3177C6.40679 19.3177 2.68311 15.5941 2.68311 11.0007C2.68311 6.40727 6.40679 2.68359 11.0002 2.68359C15.5936 2.68359 19.3173 6.40727 19.3173 11.0007ZM15.0761 8.03604C15.5191 7.98315 15.9405 7.86547 16.3328 7.69139C16.0386 8.13131 15.6684 8.51535 15.2396 8.8255C15.2442 8.91938 15.2463 9.01359 15.2463 9.10851C15.2463 11.9997 13.0454 15.3337 9.0211 15.3337C7.78546 15.3337 6.63561 14.9712 5.66719 14.3502C5.83845 14.3709 6.01289 14.3814 6.1894 14.3814C7.21419 14.3814 8.15774 14.0315 8.90656 13.4445C7.9494 13.4266 7.14136 12.7941 6.86293 11.9251C6.99671 11.9503 7.13365 11.9637 7.2748 11.9637C7.47444 11.9637 7.66741 11.9373 7.85129 11.8869C6.85031 11.6859 6.09623 10.8019 6.09623 9.74171V9.71406C6.40006 9.88304 6.73993 9.97684 7.08742 9.98761C6.50042 9.59533 6.11411 8.92568 6.11411 8.16669C6.11411 7.76569 6.22196 7.38985 6.41039 7.0666C7.48949 8.39016 9.10165 9.26121 10.9201 9.3526C10.883 9.19219 10.8637 9.02511 10.8637 8.85386C10.8637 7.64518 11.8434 6.66592 13.0513 6.66592C13.6807 6.66592 14.2495 6.93139 14.6484 7.35659C15.1386 7.26031 15.6086 7.08072 16.0381 6.82562C15.8746 7.33625 15.5282 7.7653 15.0761 8.03604Z" fill="white"/>
</svg>
