<svg width="38" height="38" viewBox="0 0 38 38" fill="none" xmlns="http://www.w3.org/2000/svg">
<path d="M23.75 12.6667H23.7658M19.7917 33.25H9.5C8.24022 33.25 7.03204 32.7496 6.14124 31.8588C5.25045 30.968 4.75 29.7598 4.75 28.5V9.5C4.75 8.24022 5.25045 7.03204 6.14124 6.14124C7.03204 5.25045 8.24022 4.75 9.5 4.75H28.5C29.7598 4.75 30.968 5.25045 31.8588 6.14124C32.7496 7.03204 33.25 8.24022 33.25 9.5V19.7917" stroke="white" stroke-width="2" stroke-linecap="round" stroke-linejoin="round"/>
<path d="M4.75 25.3335L12.6667 17.4169C14.136 16.003 15.9473 16.003 17.4167 17.4169L23.75 23.7502" stroke="white" stroke-width="2" stroke-linecap="round" stroke-linejoin="round"/>
<path d="M22.1667 22.1667L23.7501 20.5834C24.8109 19.5637 26.0459 19.2787 27.2049 19.7284M25.3334 30.0834H34.8334M30.0834 25.3334V34.8334" stroke="white" stroke-width="2" stroke-linecap="round" stroke-linejoin="round"/>
</svg>
